<!DOCTYPE svg PUBLIC "-//W3C//DTD SVG 1.1//EN" "http://www.w3.org/Graphics/SVG/1.1/DTD/svg11.dtd">

<!-- Uploaded to: SVG Repo, www.svgrepo.com, Transformed by: SVG Repo Mixer Tools -->
<svg fill="#000000" height="100px" width="100px" version="1.1" id="Layer_1" xmlns="http://www.w3.org/2000/svg" xmlns:xlink="http://www.w3.org/1999/xlink" viewBox="-49.6 -49.6 595.20 595.20" xml:space="preserve" stroke="#000000">

<g id="SVGRepo_bgCarrier" stroke-width="0" transform="translate(0,0), scale(1)">

<path transform="translate(-49.6, -49.6), scale(18.6)" d="M16,31.896220365805284C18.79416739490247,32.06829169952299,21.93356931654946,31.7442362743026,23.998779758810997,29.854292940814176C26.03731555790019,27.9887604678391,25.953874800774482,24.82323153231887,26.650849487492206,22.149270818701815C27.183169649666826,20.107011282097325,27.532559610290914,18.109076000005643,27.609936584319385,16C27.68993818789662,13.81938407148584,28.029068953912766,11.564522444519795,27.111817729245814,9.584589042833876C26.16311976376017,7.536776252331995,24.42968934863996,5.910992963675815,22.441327238721513,4.84329395435701C20.482381988727965,3.791391037732999,18.221258517840372,3.517946301836811,16,3.6178304116640767C13.841383970955917,3.714897654755423,11.780452175504037,4.3710892966754695,9.884667649865154,5.407933664396852C7.958492919235596,6.461399073408706,6.436208357742628,7.992632979538332,4.986492911041793,9.64134871746812C3.2530077305462406,11.61278684007016,0.7510633252032812,13.381004012527551,0.5710656589695375,15.999999999999996C0.39144424883433626,18.613521398646025,2.698477661363503,20.656068154023664,4.076346918591128,22.884124316275113C5.41398566262797,25.047126524854924,6.521598319281781,27.369489401074663,8.550478025206491,28.90295055244318C10.72240984712827,30.544532881159956,13.282634155783512,31.728878650392563,16,31.896220365805284" fill="#8aadff" strokewidth="0"/>

</g>

<g id="SVGRepo_tracerCarrier" stroke-linecap="round" stroke-linejoin="round" stroke="#CCCCCC" stroke-width="5.952"/>

<g id="SVGRepo_iconCarrier"> <g> <g> <g> <path d="M200,32c-92.64,0-168,75.36-168,168s75.36,168,168,168s168-75.36,168-168S292.64,32,200,32z M200,352 c-83.816,0-152-68.184-152-152S116.184,48,200,48s152,68.184,152,152S283.816,352,200,352z"/> <path d="M483.712,424.4l-88.4-88.4l10.344-10.344l-11.312-11.312L384,324.688l-16.144-16.144 C388.152,277.256,400,239.992,400,200C400,89.72,310.28,0,200,0S0,89.72,0,200s89.72,200,200,200 c39.992,0,77.256-11.848,108.544-32.144L324.688,384l-10.344,10.344l11.312,11.312L336,395.312l88.4,88.4 c7.92,7.92,18.456,12.288,29.656,12.288C477.184,496,496,477.184,496,454.056C496,442.856,491.64,432.328,483.712,424.4z M200,384C98.544,384,16,301.456,16,200S98.544,16,200,16s184,82.544,184,184S301.456,384,200,384z M321.792,358.48 c13.752-10.6,26.088-22.936,36.688-36.688L372.688,336L336,372.688L321.792,358.48z M454.056,480 c-6.928,0-13.44-2.696-18.344-7.6l-88.4-88.4L384,347.312l88.4,88.4c4.896,4.904,7.6,11.416,7.6,18.344 C480,468.36,468.36,480,454.056,480z"/> <path d="M200,77.904L72.48,176H112v128h176V176h39.52L200,77.904z M224,288h-48v-40c0-13.232,10.768-24,24-24s24,10.768,24,24 V288z M272,288h-32v-40c0-22.056-17.944-40-40-40c-22.056,0-40,17.944-40,40v40h-32V176h144V288z M119.52,160L200,98.096 L280.48,160H119.52z"/> </g> </g> </g> </g>

</svg>