<svg width="690" height="287" viewBox="0 0 690 287" fill="none" xmlns="http://www.w3.org/2000/svg">
<path d="M350.408 9.19218V18.3844H328.994H307.688L298.495 9.70286C291.141 2.65553 288.762 1.02137 286.166 1.02137C283.354 1.02137 278.596 5.10677 251.234 30.8448C233.821 47.2886 219.221 61.5876 218.897 62.6089C217.166 67.7157 222.357 72.4139 227.332 70.5754C228.738 70.0648 242.473 57.6043 257.939 42.9989L286.058 16.3416L314.718 43.9182L343.378 71.5968L386.205 71.4947C427.951 71.4947 429.141 71.3925 431.953 69.3498C433.575 68.2263 434.765 66.1836 434.765 64.8559C434.765 63.3238 428.276 55.5616 414.433 40.752L394.208 18.895L380.906 18.5886L367.712 18.2822V9.19218V1.34632e-05H359.06H350.408V9.19218Z" fill="black"/>
<path d="M267.132 55.1531V62.3026H274.702H282.273V55.1531V48.0036H274.702H267.132V55.1531Z" fill="black"/>
<path d="M289.843 55.1531V62.3026H297.414H304.984V55.1531V48.0036H297.414H289.843V55.1531Z" fill="black"/>
<path d="M267.132 75.5801V82.7296H274.702H282.273V75.5801V68.4306H274.702H267.132V75.5801Z" fill="black"/>
<path d="M289.843 75.5801V82.7296H297.414H304.984V75.5801V68.4306H297.414H289.843V75.5801Z" fill="black"/>
<path d="M0 100.603V108.263H345H690V100.603V92.9431H345H0V100.603Z" fill="black"/>
<path d="M119.29 159.331C102.418 162.701 96.6865 171.996 97.5517 194.465C98.3088 211.828 101.661 218.161 112.693 222.757C117.451 224.698 120.371 225.106 129.781 225.106C136.702 225.208 143.299 224.595 146.544 223.778C153.898 221.736 161.252 214.79 163.415 207.845C165.362 201.513 165.362 181.903 163.524 175.877C161.685 170.259 155.412 163.621 149.356 161.067C143.948 158.82 126.752 157.799 119.29 159.331ZM147.193 167.093C153.249 170.362 156.169 177.307 156.602 189.563C157.575 212.952 149.572 220.919 126.969 219.284C110.638 218.161 105.663 211.726 105.663 192.014C105.663 176.285 109.124 169.136 118.425 165.868C124.697 163.723 142.326 164.438 147.193 167.093Z" fill="black"/>
<path d="M14.8166 160.046C14.384 160.352 14.0596 175.06 14.0596 192.729V224.697H17.8448H21.522L21.8464 209.071L22.1709 193.546L41.8542 193.24L61.5376 193.036L61.8621 208.56L62.1865 224.187H65.9718H69.7571V192.014V159.842H65.9718H62.1865L61.8621 173.426L61.5376 186.907L41.8542 186.703L22.1709 186.397L21.8464 172.813L21.522 159.331H18.4937C16.8715 159.331 15.1411 159.637 14.8166 160.046Z" fill="black"/>
<path d="M193.265 160.046C192.832 160.352 192.508 175.06 192.508 192.729V224.697H196.293H200.078L200.295 197.325L200.619 170.055L212.948 197.427L225.277 224.8L229.603 224.493L233.929 224.187L245.934 197.632L257.939 171.076L258.48 197.632L259.02 224.187H262.806H266.591V192.014V159.842L261.075 159.535C257.506 159.331 255.235 159.739 254.478 160.557C253.18 162.191 233.281 206.415 231.442 211.726C229.928 216.22 228.846 215.914 227.116 210.603C224.737 203.76 205.161 160.863 203.972 160.148C202.458 159.127 194.238 159.127 193.265 160.046Z" fill="black"/>
<path d="M296.332 192.014V224.697H321.099C342.621 224.697 345.973 224.493 346.514 223.063C348.353 218.671 348.136 218.671 325.857 218.365L304.444 218.059L304.119 206.007L303.795 194.057H321.207H338.511V190.993V188.031L321.531 187.724L304.444 187.418L304.119 177L303.795 166.48L324.56 166.276C342.296 165.97 345.433 165.765 346.406 164.336C347.055 163.416 347.163 161.884 346.839 160.965C346.19 159.535 343.27 159.331 321.207 159.331H296.332V192.014Z" fill="black"/>
<path d="M365.549 160.454C365.549 161.476 380.798 211.522 384.042 221.327C385.124 224.391 385.556 224.697 389.45 224.697C392.802 224.697 393.884 224.187 394.749 222.348C395.29 221.123 398.534 210.194 401.779 198.142C405.023 186.09 408.052 175.468 408.376 174.651C409.025 173.119 410.107 176.592 419.624 209.071L424.166 224.697H428.817C432.386 224.697 433.683 224.289 434.116 222.859C436.928 214.178 452.069 161.68 452.069 160.659C452.069 159.637 450.879 159.331 448.067 159.535L443.958 159.842L437.144 186.397C428.925 218.059 429.465 216.629 428.168 213.973C427.627 212.85 424.058 200.491 420.165 186.397C416.271 172.404 412.594 160.454 412.161 160.046C411.621 159.535 409.89 159.331 408.16 159.535L405.023 159.842L397.561 188.235C393.451 203.862 389.882 216.424 389.666 216.118C389.45 215.914 385.665 203.147 381.447 187.827L373.66 159.842L369.55 159.535C367.063 159.331 365.549 159.637 365.549 160.454Z" fill="black"/>
<path d="M479.755 191.504C472.293 209.173 466.128 223.88 466.128 224.187C466.128 225.31 473.483 224.595 474.456 223.37C475.105 222.757 477.16 218.161 479.215 213.156L482.892 204.27L498.033 204.475L513.174 204.781L516.959 213.463C519.014 218.263 521.177 222.757 521.61 223.37C522.583 224.8 529.937 225.208 529.937 223.88C529.937 222.144 503.549 160.761 502.467 160.148C501.818 159.74 499.547 159.331 497.384 159.331H493.382L479.755 191.504ZM502.143 177.715C504.197 183.026 506.901 189.767 508.091 192.627C509.389 195.589 510.038 198.244 509.713 198.551C508.74 199.47 486.893 199.266 486.353 198.347C486.028 197.938 487.434 193.853 489.381 189.257C491.328 184.661 494.031 177.817 495.329 174.141C496.627 170.362 497.925 167.502 498.033 167.706C498.249 167.91 500.088 172.404 502.143 177.715Z" fill="black"/>
<path d="M554.271 160.557C553.947 161.271 553.839 175.877 553.947 193.036L554.271 224.187L577.632 224.493L601.1 224.697L601.749 222.45C602.074 221.123 602.398 219.795 602.398 219.284C602.398 218.876 593.422 218.569 582.39 218.569H562.382L562.166 189.154L561.842 159.842L558.273 159.535C556.11 159.331 554.596 159.739 554.271 160.557Z" fill="black"/>
<path d="M623.487 160.659C623.163 161.374 623.055 175.877 623.163 193.036L623.487 224.187L648.146 224.493L672.696 224.697L673.777 222.144C674.426 220.612 674.859 219.284 674.859 219.08C674.859 218.774 665.234 218.467 653.553 218.365L632.139 218.059L631.815 206.109L631.491 194.159L648.578 193.853L665.666 193.546V190.993V188.439L648.687 188.133L631.599 187.827V177.205V166.48H652.147H672.696L673.777 163.825C674.426 162.395 674.643 160.761 674.21 160.25C673.886 159.739 662.638 159.331 648.795 159.331C629.868 159.331 623.812 159.637 623.487 160.659Z" fill="black"/>
<path d="M0 279.34V287H345H690V279.34V271.68H345H0V279.34Z" fill="black"/>
</svg>
