<!DOCTYPE svg PUBLIC "-//W3C//DTD SVG 1.1//EN" "http://www.w3.org/Graphics/SVG/1.1/DTD/svg11.dtd">

<!-- Uploaded to: SVG Repo, www.svgrepo.com, Transformed by: SVG Repo Mixer Tools -->
<svg fill="#000000" height="100px" width="100px" version="1.1" id="Layer_1" xmlns="http://www.w3.org/2000/svg" xmlns:xlink="http://www.w3.org/1999/xlink" viewBox="-49.6 -49.6 595.20 595.20" xml:space="preserve">

<g id="SVGRepo_bgCarrier" stroke-width="0">

<path transform="translate(-49.6, -49.6), scale(18.6)" d="M16,28.275692362338305C18.559045300198285,28.972666966684198,21.753189475177738,29.821764989657034,23.794231062795472,28.128060267698412C25.879496738052936,26.397657348841637,24.46871978580132,22.845793105100082,25.541867115644486,20.357624701143973C26.579004600812933,17.95294768300168,29.703736501099744,16.61591070731326,29.886168358529194,14.003470403283696C30.072477008467807,11.33551408826784,28.407736524738915,8.772874616714454,26.480330816621922,6.918741652714038C24.631304112648845,5.140008016762065,21.98233547194954,4.732659774585337,19.51555735528298,4.027111177529509C17.066708593851693,3.326690739892193,14.301862663422613,1.4861482052530957,12.128161809466777,2.813730083456944C9.82676923440546,4.219299332658872,11.04806739568234,8.142767022961618,9.348615981660675,10.236542939870874C7.743101382993772,12.2145858384201,3.9357950150232126,11.77497556109424,2.948409508389153,14.123464585195176C1.9939619411627416,16.393610967384078,3.317844690943706,19.13939599821188,4.769051707606298,21.129002228082264C6.1084117131424005,22.96526609702511,8.610312359020586,23.29466755756798,10.527831804747624,24.514859917842905C12.433734374968896,25.727660007455864,13.820336781873534,27.68204522801705,16,28.275692362338305" fill="#8aadff" strokewidth="0"/>

</g>

<g id="SVGRepo_tracerCarrier" stroke-linecap="round" stroke-linejoin="round"/>

<g id="SVGRepo_iconCarrier"> <g> <g> <g> <path d="M496,80V32H80V0H32v32H0v48h32v416h16V64H16V48h32V16h16v32h416v16H64v432h16V80h48v32H96v288h400V112h-32V80H496z M144,80h304v32H144V80z M480,128v256H112V128H480z"/> <polygon points="184,208 224,208 224,192 184,192 184,176 240,176 240,160 168,160 168,240 184,240 "/> <path d="M280,240h24c13.232,0,24-10.768,24-24v-32c0-13.232-10.768-24-24-24h-24c-13.232,0-24,10.768-24,24v32 C256,229.232,266.768,240,280,240z M272,184c0-4.408,3.592-8,8-8h24c4.408,0,8,3.592,8,8v32c0,4.408-3.592,8-8,8h-24 c-4.408,0-8-3.592-8-8V184z"/> <path d="M360,216h28c6.616,0,12,5.384,12,12v12h16v-12c0-7.832-3.224-14.912-8.424-20c5.2-5.088,8.424-12.168,8.424-20 c0-15.44-12.56-28-28-28h-44v80h16V216z M360,176h28c6.616,0,12,5.384,12,12c0,6.616-5.384,12-12,12h-28V176z"/> <path d="M144,328h28c6.616,0,12,5.384,12,12v12h16v-12c0-7.832-3.224-14.912-8.424-20c5.2-5.088,8.424-12.168,8.424-20 c0-15.44-12.56-28-28-28h-44v80h16V328z M144,288h28c6.616,0,12,5.384,12,12c0,6.616-5.384,12-12,12h-28V288z"/> <polygon points="216,352 280,352 280,336 232,336 232,320 280,320 280,304 232,304 232,288 280,288 280,272 216,272 "/> <polygon points="352,328.904 316.432,272 296,272 296,352 312,352 312,295.096 347.568,352 368,352 368,272 352,272 "/> <polygon points="384,288 416,288 416,352 432,352 432,288 464,288 464,272 384,272 "/> </g> </g> </g> </g>

</svg>