<?xml version="1.0" standalone="no"?>
<!DOCTYPE svg PUBLIC "-//W3C//DTD SVG 20010904//EN"
 "http://www.w3.org/TR/2001/REC-SVG-20010904/DTD/svg10.dtd">
<svg version="1.0" xmlns="http://www.w3.org/2000/svg"
 width="1000.000000pt" height="1000.000000pt" viewBox="0 0 1000.000000 1000.000000"
 preserveAspectRatio="xMidYMid meet">
<metadata>
Created by potrace 1.16, written by Peter Selinger 2001-2019
</metadata>
<g transform="translate(0.000000,1000.000000) scale(0.100000,-0.100000)"
fill="#000000" stroke="none">
<path d="M5050 6770 l0 -90 -198 0 -197 0 -85 85 c-68 69 -90 85 -114 85 -26
0 -70 -40 -323 -292 -161 -161 -296 -301 -299 -311 -16 -50 32 -96 78 -78 13
5 140 127 283 270 l260 261 265 -270 265 -271 396 1 c386 0 397 1 423 21 15
11 26 31 26 44 0 15 -60 91 -188 236 l-187 214 -123 3 -122 3 0 89 0 90 -80 0
-80 0 0 -90z"/>
<path d="M4280 6320 l0 -70 70 0 70 0 0 70 0 70 -70 0 -70 0 0 -70z"/>
<path d="M4490 6320 l0 -70 70 0 70 0 0 70 0 70 -70 0 -70 0 0 -70z"/>
<path d="M4280 6120 l0 -70 70 0 70 0 0 70 0 70 -70 0 -70 0 0 -70z"/>
<path d="M4490 6120 l0 -70 70 0 70 0 0 70 0 70 -70 0 -70 0 0 -70z"/>
<path d="M1810 5875 l0 -75 3190 0 3190 0 0 75 0 75 -3190 0 -3190 0 0 -75z"/>
<path d="M2913 5300 c-156 -33 -209 -124 -201 -344 7 -170 38 -232 140 -277
44 -19 71 -23 158 -23 64 -1 125 5 155 13 68 20 136 88 156 156 18 62 18 254
1 313 -17 55 -75 120 -131 145 -50 22 -209 32 -278 17z m258 -76 c56 -32 83
-100 87 -220 9 -229 -65 -307 -274 -291 -151 11 -197 74 -197 267 0 154 32
224 118 256 58 21 221 14 266 -12z"/>
<path d="M1947 5293 c-4 -3 -7 -147 -7 -320 l0 -313 35 0 34 0 3 153 3 152
182 3 182 2 3 -152 3 -153 35 0 35 0 0 315 0 315 -35 0 -35 0 -3 -133 -3 -132
-182 2 -182 3 -3 133 -3 132 -28 0 c-15 0 -31 -3 -34 -7z"/>
<path d="M3597 5293 c-4 -3 -7 -147 -7 -320 l0 -313 35 0 35 0 2 268 3 267
114 -268 114 -268 40 3 40 3 111 260 111 260 5 -260 5 -260 35 0 35 0 0 315 0
315 -51 3 c-33 2 -54 -2 -61 -10 -12 -16 -196 -449 -213 -501 -14 -44 -24 -41
-40 11 -22 67 -203 487 -214 494 -14 10 -90 10 -99 1z"/>
<path d="M4550 4980 l0 -320 229 0 c199 0 230 2 235 16 17 43 15 43 -191 46
l-198 3 -3 118 -3 117 161 0 160 0 0 30 0 29 -157 3 -158 3 -3 102 -3 103 192
2 c164 3 193 5 202 19 6 9 7 24 4 33 -6 14 -33 16 -237 16 l-230 0 0 -320z"/>
<path d="M5190 5289 c0 -10 141 -500 171 -596 10 -30 14 -33 50 -33 31 0 41 5
49 23 5 12 35 119 65 237 30 118 58 222 61 230 6 15 16 -19 104 -337 l42 -153
43 0 c33 0 45 4 49 18 26 85 166 599 166 609 0 10 -11 13 -37 11 l-38 -3 -63
-260 c-76 -310 -71 -296 -83 -270 -5 11 -38 132 -74 270 -36 137 -70 254 -74
258 -5 5 -21 7 -37 5 l-29 -3 -69 -278 c-38 -153 -71 -276 -73 -273 -2 2 -37
127 -76 277 l-72 274 -38 3 c-23 2 -37 -1 -37 -9z"/>
<path d="M6246 4985 c-69 -173 -126 -317 -126 -320 0 -11 68 -4 77 8 6 6 25
51 44 100 l34 87 140 -2 140 -3 35 -85 c19 -47 39 -91 43 -97 9 -14 77 -18 77
-5 0 17 -244 618 -254 624 -6 4 -27 8 -47 8 l-37 0 -126 -315z m207 135 c19
-52 44 -118 55 -146 12 -29 18 -55 15 -58 -9 -9 -211 -7 -216 2 -3 4 10 44 28
89 18 45 43 112 55 148 12 37 24 65 25 63 2 -2 19 -46 38 -98z"/>
<path d="M6935 5288 c-3 -7 -4 -150 -3 -318 l3 -305 216 -3 217 -2 6 22 c3 13
6 26 6 31 0 4 -83 7 -185 7 l-185 0 -2 288 -3 287 -33 3 c-20 2 -34 -2 -37
-10z"/>
<path d="M7575 5287 c-3 -7 -4 -149 -3 -317 l3 -305 228 -3 227 -2 10 25 c6
15 10 28 10 30 0 3 -89 6 -197 7 l-198 3 -3 117 -3 117 158 3 158 3 0 25 0 25
-157 3 -158 3 0 104 0 105 190 0 190 0 10 26 c6 14 8 30 4 35 -3 5 -107 9
-235 9 -175 0 -231 -3 -234 -13z"/>
<path d="M1810 4125 l0 -75 3190 0 3190 0 0 75 0 75 -3190 0 -3190 0 0 -75z"/>
</g>
</svg>
